<?xml version="1.0" encoding="utf-8"?>
<!-- Generator: Adobe Illustrator 18.0.0, SVG Export Plug-In . SVG Version: 6.00 Build 0)  -->
<!DOCTYPE svg PUBLIC "-//W3C//DTD SVG 1.1//EN" "http://www.w3.org/Graphics/SVG/1.1/DTD/svg11.dtd">
<svg version="1.1" id="图层_1" xmlns="http://www.w3.org/2000/svg" xmlns:xlink="http://www.w3.org/1999/xlink" x="0px" y="0px"
	 viewBox="0 0 42 32" enable-background="new 0 0 42 32" xml:space="preserve">
<g display="none">
	<g display="inline">
		<g>
			<path fill="#58207D" d="M19,0v12.6l-2.3-2.3C16.5,10.1,16.3,10,16,10s-0.5,0.1-0.7,0.3L13,12.6V0h-1.8c-2.7,0-5,1.2-5.8,3H5v25h0
				c0.3,2.2,3,4,6.1,4H37V0H19z M35,30H11.2C9,30,7,28.8,7,27.5c0-1.3,2-2.5,4.2-2.5H35V30z"/>
		</g>
	</g>
</g>
<g display="none">
	<g display="inline">
		<g>
			<path fill="#58207D" d="M34.2,10.5c-1.3-0.3-4.2-0.3-8.5-0.4c0.2-0.9,0.2-1.8,0.2-3.3C25.9,3.2,23.3,0,21,0c-1.6,0-3,1.3-3,3
				c0,2-0.6,5.5-4,7.3c-0.2,0.1-1,0.6-1,0.6c-0.5-0.5-1.3-0.8-2-0.8H8c-1.7,0-3,1.3-3,3v16c0,1.7,1.3,3,3,3h3c1.2,0,2.2-0.7,2.7-1.7
				c0,0,0,0,0,0c0.1,0,0.1,0,0.2,0.1c0,0,0,0,0,0c0.6,0.1,1.7,0.4,4.1,1c0.5,0.1,3.2,0.7,6,0.7h5.5c1.7,0,2.9-0.6,3.6-1.9
				c0,0,0.2-0.5,0.4-1.1c0.1-0.5,0.2-1.1,0-1.8c1.1-0.7,1.4-1.9,1.6-2.6c0.4-1.2,0.3-2.1,0-2.7c0.6-0.6,1.1-1.4,1.3-2.8
				c0.1-0.8,0-1.7-0.4-2.4c0.6-0.6,0.8-1.4,0.9-2.2l0-0.2c0-0.1,0-0.2,0-0.5C37,12.6,36.1,11,34.2,10.5z M12,29c0,0.6-0.4,1-1,1H8
				c-0.6,0-1-0.4-1-1V13c0-0.6,0.4-1,1-1h3c0.6,0,1,0.4,1,1V29z M9.5,26C8.7,26,8,26.7,8,27.5S8.7,29,9.5,29c0.8,0,1.5-0.7,1.5-1.5
				S10.3,26,9.5,26z M9.5,28C9.2,28,9,27.8,9,27.5C9,27.2,9.2,27,9.5,27c0.3,0,0.5,0.2,0.5,0.5C10,27.8,9.8,28,9.5,28z"/>
		</g>
	</g>
</g>
<g>
	<path fill="#58207D" d="M26.3,19.4c1.2-1.4,2.2-3.3,2.2-5.5V8c0-4.6-3.2-8-7.5-8c-4.3,0-7.5,3.4-7.5,8v5.8c0,2.3,0.6,4.3,2,5.8
		c-5.2,1.3-9.6,4.1-9.9,7.7c0,1.1,0,1.7,1.1,2.3C9.5,31.1,14.8,32,21,32c6.2,0,11.5-0.9,14.3-2.3c1.2-0.7,1.2-2,1.1-2.4
		C36.2,24.2,32.3,20.7,26.3,19.4z"/>
</g>
<g display="none">
	<g display="inline">
		<circle fill="#58207D" cx="5" cy="16" r="5"/>
	</g>
	<g display="inline">
		<circle fill="#58207D" cx="37" cy="16" r="5"/>
	</g>
	<g display="inline">
		<circle fill="#58207D" cx="21" cy="16" r="5"/>
	</g>
</g>
<g display="none">
	<g display="inline">
		<g>
			<path fill="#58207D" d="M30,6V0H9C6.9,0,5,1.4,5,5v23c0,2.2,1.8,4,4,4h24c2.2,0,4-1.8,4-4V6H30z M9,6C7.9,6,7,5.1,7,4
				c0-1.1,0.9-2,2-2h19v4H9z M21,17.5c0,0.3-0.2,0.5-0.5,0.5H17v2h3.5c0.3,0,0.5,0.2,0.5,0.5v1c0,0.3-0.2,0.5-0.5,0.5H17v3.5
				c0,0.3-0.2,0.5-0.5,0.5h-1c-0.3,0-0.5-0.2-0.5-0.5V22h-3.5c-0.3,0-0.5-0.2-0.5-0.5v-1c0-0.3,0.2-0.5,0.5-0.5H15v-2h-3.5
				c-0.3,0-0.5-0.2-0.5-0.5v-1c0-0.3,0.2-0.5,0.5-0.5h3.1l-2.8-2.8c-0.2-0.2-0.2-0.5,0-0.7l0.7-0.7c0.2-0.2,0.5-0.2,0.7,0l2.8,2.8
				l2.8-2.8c0.2-0.2,0.5-0.2,0.7,0l0.7,0.7c0.2,0.2,0.2,0.5,0,0.7L17.4,16h3.1c0.3,0,0.5,0.2,0.5,0.5V17.5z M37,23h-8
				c-1.1,0-2-0.9-2-2v-4c0-1.1,0.9-2,2-2h8V23z M31,21.5c1.4,0,2.5-1.1,2.5-2.5c0-1.4-1.1-2.5-2.5-2.5c-1.4,0-2.5,1.1-2.5,2.5
				C28.5,20.4,29.6,21.5,31,21.5z M31,17.7c0.7,0,1.2,0.6,1.2,1.2c0,0.7-0.6,1.2-1.2,1.2c-0.7,0-1.3-0.6-1.3-1.2
				C29.8,18.3,30.3,17.7,31,17.7z"/>
		</g>
	</g>
</g>
</svg>
