<?xml version="1.0" encoding="utf-8"?>
<!-- Generator: Adobe Illustrator 18.0.0, SVG Export Plug-In . SVG Version: 6.00 Build 0)  -->
<!DOCTYPE svg PUBLIC "-//W3C//DTD SVG 1.1//EN" "http://www.w3.org/Graphics/SVG/1.1/DTD/svg11.dtd">
<svg version="1.1" id="图层_1" xmlns="http://www.w3.org/2000/svg" xmlns:xlink="http://www.w3.org/1999/xlink" x="0px" y="0px"
	 viewBox="0 0 42 32" enable-background="new 0 0 42 32" xml:space="preserve">
<g display="none">
	<path display="inline" fill="#888888" d="M20,0h-8h-0.8c-2.7,0-5,1.2-5.8,3H5v25h0c0.3,2.2,3,4,6.1,4H37v-4v-5V0H20L20,0z M19,2
		v10.6l-2.3-2.3C16.5,10.1,16.3,10,16,10c-0.3,0-0.5,0.1-0.7,0.3L13,12.6V2H19L19,2z M35,30H11.2C9,30,7,28.8,7,27.5
		c0-1.3,2-2.5,4.2-2.5H35V30L35,30z M11.2,23c-1.6,0-3.1,0.5-4.2,1.2V4.5C7,4.5,7.1,2,11,2v13c0,0,0,0.7,0.6,0.9s1.1-0.2,1.1-0.2
		l3.3-3.3l3.3,3.3c0,0,0.4,0.5,1.1,0.2C21,15.7,21,15,21,15V2h14v21H11.2L11.2,23z"/>
</g>
<g display="none">
	<path display="inline" fill="#888888" d="M37,14.4l0,0.2c0,0.7-0.3,1.5-0.9,2.2c0.4,0.7,0.5,1.6,0.4,2.4c-0.2,1.3-0.7,2.2-1.3,2.8
		c0.3,0.6,0.4,1.5,0,2.7c-0.2,0.7-0.6,1.8-1.6,2.6c0.2,0.7,0.1,1.3,0,1.8c-0.2,0.6-0.4,1.1-0.4,1.1c-0.7,1.3-1.9,1.9-3.6,1.9H24
		c-2.8,0-5.5-0.6-6-0.7c-2.4-0.5-3.5-0.8-4.1-1c0,0,0,0,0,0c-0.1,0-0.2,0-0.2-0.1c0,0,0,0,0,0c-0.5,1-1.5,1.7-2.7,1.7H8
		c-1.7,0-3-1.3-3-3V13c0-1.7,1.3-3,3-3h3c0.7,0,1.5,0.3,2,0.8c0,0,0.8-0.4,1-0.6C17.4,8.5,18,5,18,3c0-1.6,1.4-3,3-3
		c2.3,0,4.9,3.2,4.9,6.7c0,1.5,0,2.3-0.2,3.3c4.3,0.1,7.2,0.1,8.5,0.4c2,0.6,2.8,2.2,2.8,3.4C37,14.2,37,14.3,37,14.4L37,14.4z
		 M12,13c0-0.6-0.4-1-1-1H8c-0.6,0-1,0.4-1,1v16c0,0.6,0.4,1,1,1h3c0.6,0,1-0.4,1-1V13L12,13z M33.8,12.4C32.9,12.1,33,12,23,12
		c0.8-2.5,0.9-2.9,0.9-5.3C23.9,4.1,22.1,2,21,2c-0.6,0-1,0.5-1,1c0,3.4-1.4,7.6-6,9.4c-0.7,0.3-1,0.6-1,1.1l0,13.8
		c0,0.7,0.8,0.9,0.8,0.9c0.3,0.1,0.5,0.1,4.6,1.1c0.1,0,2.8,0.6,5.5,0.6h5.5c1,0,1.5-0.3,1.8-0.9c0,0,0.2-0.3,0.3-0.7
		c0.1-0.4,0.1-1.4-1-1.4c-0.9,0-1.6,0-1.6,0c-0.3,0-0.5-0.2-0.5-0.5c0-0.3,0.2-0.5,0.5-0.5c0,0,0.9,0,1.6,0c2.1,0,2.3-0.9,2.6-1.9
		c0.2-0.8,0.4-2.1-1.3-2.1c-0.8,0-2,0-2,0c-0.3,0-0.5-0.2-0.5-0.5c0-0.3,0.2-0.5,0.5-0.5c0,0,0.7,0,2.4,0c1.7,0,2-1.4,2.2-2.2
		c0.1-0.6-0.1-1.8-1.6-1.8c-1.5,0-1.9,0-1.9,0c-0.3,0-0.5-0.2-0.5-0.5c0-0.3,0.2-0.5,0.5-0.5c0,0,0.5,0,2,0c1.7,0,2-1,2-1.5
		c0-0.3,0-0.3,0-0.6C35,13.6,34.9,12.7,33.8,12.4L33.8,12.4z M9.5,29C8.7,29,8,28.3,8,27.5S8.7,26,9.5,26c0.8,0,1.5,0.7,1.5,1.5
		S10.3,29,9.5,29L9.5,29z M9.5,27C9.2,27,9,27.2,9,27.5C9,27.8,9.2,28,9.5,28s0.5-0.2,0.5-0.5C10,27.2,9.8,27,9.5,27L9.5,27z"/>
</g>
<g display="none">
	<path display="inline" fill="#888888" d="M26.3,19.4c1.2-1.4,2.2-3.3,2.2-5.5V8c0-4.6-3.2-8-7.5-8c-4.3,0-7.5,3.4-7.5,8v5.8
		c0,2.3,0.6,4.3,2,5.8c-5.2,1.3-9.6,4.1-9.9,7.7c0,1.1,0,1.7,1.1,2.3C9.5,31.1,14.8,32,21,32c6.2,0,11.5-0.9,14.3-2.3
		c1.2-0.7,1.2-2,1.1-2.4C36.2,24.2,32.3,20.7,26.3,19.4z M15.5,13.9V8c0-3.4,2.4-6,5.5-6c3.1,0,5.5,2.6,5.5,6v5.8c0,3.4-2.4,6-5.5,6
		C17.8,19.8,15.5,17.3,15.5,13.9L15.5,13.9z M20.9,30C15.2,30,9,29.3,7.7,27.9c0,0-0.3-0.4-0.2-0.7c0.2-2,4.1-5,9.9-6
		c0.9,0.5,2,0.7,3.1,0.7c1.2,0,2.3-0.3,3.3-0.8c6.1,0.8,10.3,4.1,10.6,6c0,0.2,0.1,0.5-0.2,0.7C33.7,28.2,29.4,29.8,20.9,30z"/>
</g>
<g>
	<g>
		<path fill="#888888" d="M5,13c1.7,0,3,1.3,3,3s-1.3,3-3,3s-3-1.3-3-3S3.3,13,5,13 M5,11c-2.8,0-5,2.2-5,5s2.2,5,5,5s5-2.2,5-5
			S7.8,11,5,11L5,11z"/>
	</g>
	<g>
		<path fill="#888888" d="M37,13c1.7,0,3,1.3,3,3s-1.3,3-3,3s-3-1.3-3-3S35.3,13,37,13 M37,11c-2.8,0-5,2.2-5,5s2.2,5,5,5s5-2.2,5-5
			S39.8,11,37,11L37,11z"/>
	</g>
	<g>
		<path fill="#888888" d="M21,13c1.7,0,3,1.3,3,3s-1.3,3-3,3s-3-1.3-3-3S19.3,13,21,13 M21,11c-2.8,0-5,2.2-5,5s2.2,5,5,5s5-2.2,5-5
			S23.8,11,21,11L21,11z"/>
	</g>
</g>
<g display="none">
	<path display="inline" fill="#888888" d="M20.5,18h-9c-0.3,0-0.5-0.2-0.5-0.5v-1c0-0.3,0.2-0.5,0.5-0.5h9c0.3,0,0.5,0.2,0.5,0.5v1
		C21,17.8,20.8,18,20.5,18L20.5,18z"/>
	<path display="inline" fill="#888888" d="M20.5,22h-9c-0.3,0-0.5-0.2-0.5-0.5v-1c0-0.3,0.2-0.5,0.5-0.5h9c0.3,0,0.5,0.2,0.5,0.5v1
		C21,21.8,20.8,22,20.5,22L20.5,22z"/>
	<path display="inline" fill="#888888" d="M16.5,26h-1c-0.3,0-0.5-0.2-0.5-0.5v-9c0-0.3,0.2-0.5,0.5-0.5h1c0.3,0,0.5,0.2,0.5,0.5v9
		C17,25.8,16.8,26,16.5,26L16.5,26z"/>
	<path display="inline" fill="#888888" d="M20.2,13.2l-3.9,3.9c-0.2,0.2-0.5,0.2-0.7,0l-0.7-0.7c-0.2-0.2-0.2-0.5,0-0.7l4-4
		c0.2-0.2,0.5-0.2,0.7,0l0.7,0.7C20.4,12.7,20.4,13,20.2,13.2L20.2,13.2z"/>
	<path display="inline" fill="#888888" d="M17.2,16.5l-0.7,0.7c-0.2,0.2-0.5,0.2-0.7,0l-4-3.9c-0.2-0.2-0.2-0.5,0-0.7l0.7-0.7
		c0.2-0.2,0.5-0.2,0.7,0l3.9,4C17.4,16,17.4,16.3,17.2,16.5L17.2,16.5z"/>
	<g display="inline">
		<g>
			<path fill="#888888" d="M30,6V0H9C6.9,0,5,1.4,5,5v23c0,2.2,1.8,4,4,4h24c2.2,0,4-1.8,4-4V6H30z M9,2h19v4H9C7.9,6,7,5.1,7,4
				C7,2.9,7.9,2,9,2z M35,23h-6c-1.1,0-2-0.9-2-2v-4c0-1.1,0.9-2,2-2h6V23z M35,13h-6c-2.2,0-4,1.8-4,4v4c0,2.2,1.8,4,4,4h6v3
				c0,1.1-0.9,2-2,2H9c-1.1,0-2-0.9-2-2V7.5C7.1,7.5,7.8,8,9,8h26V13z"/>
		</g>
	</g>
	<g display="inline">
		<g>
			<path fill="#888888" d="M31,16.5c-1.4,0-2.5,1.1-2.5,2.5c0,1.4,1.1,2.5,2.5,2.5c1.4,0,2.5-1.1,2.5-2.5
				C33.5,17.6,32.4,16.5,31,16.5z M31,20.2c-0.7,0-1.3-0.6-1.3-1.2c0-0.7,0.6-1.2,1.3-1.2c0.7,0,1.2,0.6,1.2,1.2
				C32.3,19.7,31.7,20.2,31,20.2z"/>
		</g>
	</g>
</g>
</svg>
